<svg id="Layer_1" height="512" viewBox="0 0 512 512" width="512" xmlns="http://www.w3.org/2000/svg" data-name="Layer 1"><path d="m407.107 122.509-123.113-23.109a5.868 5.868 0 0 0 -4.882 1.28 5.944 5.944 0 0 0 -2.112 4.612v229.916c-10-11.227-26.484-18.463-44.528-18.463-31.139 0-56.5 21.525-56.5 47.982s25.375 47.981 56.514 47.981 56.514-21.524 56.514-47.981v-159.279l115.949 21.78a5.957 5.957 0 0 0 7.051-5.9v-92.923a6 6 0 0 0 -4.893-5.896zm-174.692 278.2c-24.521 0-44.472-16.142-44.472-35.981s19.951-35.982 44.472-35.982 44.472 16.142 44.472 35.982-19.95 35.98-44.472 35.98zm167.585-186.609-111-20.862v-80.715l111 20.861z"/><path d="m106 140h108.962a6 6 0 0 0 0-12h-108.962a6 6 0 0 0 0 12z"/><path d="m106 197h108.962a6 6 0 0 0 0-12h-108.962a6 6 0 0 0 0 12z"/><path d="m220.962 247a6 6 0 0 0 -6-6h-108.962a6 6 0 0 0 0 12h108.962a6 6 0 0 0 6-6z"/></svg>