<svg id="Layer_1" height="512" viewBox="0 0 512 512" width="512" xmlns="http://www.w3.org/2000/svg" data-name="Layer 1"><path d="m247.186 79.933a6.161 6.161 0 0 0 -6.186 6v247.944a60.942 60.942 0 0 0 -49.5-25.177 61.686 61.686 0 1 0 61.5 61.681v-147.258a96.178 96.178 0 0 1 176.907 51.94 6.04 6.04 0 0 0 6.047 6 5.941 5.941 0 0 0 5.93-6c0-107.595-87.384-195.13-194.698-195.13zm-55.5 340.134a49.686 49.686 0 1 1 49.685-49.686 49.742 49.742 0 0 1 -49.685 49.686zm142.289-252.843c-31.415 0-59.975 13.226-80.975 36.1v-111.294c74 2.391 136.114 48.441 162.857 113.039a107.455 107.455 0 0 0 -81.882-37.845z"/></svg>