<svg id="Layer_1" height="512" viewBox="0 0 512 512" width="512" xmlns="http://www.w3.org/2000/svg" data-name="Layer 1"><path d="m407 113.285a26.186 26.186 0 0 0 -31.346-25.485l-157.872 31.99a26.03 26.03 0 0 0 -20.782 25.484v136.026c-10-11.487-24.02-18.815-40.088-18.815a52 52 0 1 0 52.088 52v-96.25l186-37.665v158.477c-10-11.2-23.864-18.326-39.7-18.326a52 52 0 1 0 52.016 52c0-2.209-.315-4.38-.315-6.517zm-250.176 241.2a40 40 0 1 1 40-40 40.046 40.046 0 0 1 -40 39.997zm52.176-148.497v-60.714a13.964 13.964 0 0 1 11.133-13.72l157.885-31.991a14.167 14.167 0 0 1 16.982 13.722v55.041zm146.176 206.734a40 40 0 1 1 39.824-45.779v5.057h.155s.022.5.022.783a39.994 39.994 0 0 1 -40.001 39.939z"/></svg>