<svg id="Layer_1" height="512" viewBox="0 0 512 512" width="512" xmlns="http://www.w3.org/2000/svg" data-name="Layer 1"><path d="m431.137 64.8c-17.839.58-68.105 47.88-109.2 91.952-9.029 9.686-17.713 19.325-25.876 28.7a365.239 365.239 0 0 0 -57.035-3.728c4.657-10.9 9.119-22.19 13.2-33.533 17.336-48.212 27.214-77.554 33.03-98.111 3.411-12.057 5.393-21.056 6.061-27.509.394-3.806 1.44-13.917-5.96-16.93a9.318 9.318 0 0 0 -7.335.23c-16.429 6.95-46.322 69.163-68.822 125.067l-2.012 5c-7.444 18.5-14.145 35.149-19.84 49.959-32.561 5.158-60.589 14.751-81.206 27.851-22.742 14.452-34.772 32.205-34.772 51.127 0 1.345.069 2.125.194 4.125h-.564v155h.38c.2 23 18.694 44.2 52.135 59.716 32.158 14.917 74.783 23.208 120.022 23.208 3.176 0 6.338.055 9.485-.025a.441.441 0 0 1 .015.1h.075c.032 0 .063-.068.095-.069 41.613-1.084 80.494-9.145 110.351-22.994 33.627-15.596 52.142-36.936 52.142-59.936h-.7v-55.079c1-1.675.7-2.921.7-4.921h-.7v-94.177c1-1.675.508-3.36.508-5.056 0-26.6-25.32-51.137-68.409-66.63 2.93-3.24 5.88-6.515 8.736-9.816 33.511-38.748 53.306-62.574 66.127-79.669 16.13-21.5 23.481-34.475 16.09-41.43a9.321 9.321 0 0 0 -6.915-2.422zm-212.815 75.618 2.013-5c29.54-73.406 50.523-107.036 59.252-116.045-.271 4.6-1.874 14.133-7.7 33.733-5.906 19.854-15.45 47.926-30.947 91.021-10.566 29.372-23.714 58.695-37.025 82.567-12.676 22.736-20.693 31.957-24.1 34.768-.937-2.483-1.723-10.148 5.214-32.836 6.962-22.782 19.164-53.101 33.293-88.208zm129.716 332.245-34.244-32.781a234.568 234.568 0 0 0 49.764-16.073q3.377-1.568 6.543-3.21zm-8.971 8.024c-21.718 7.328-46.913 12-73.695 13.642l36.517-49.229zm-86.133 10.268-34.894-44.9c8.369.585 16.885.884 25.5.884a357.584 357.584 0 0 0 44.034-2.682zm-12.066 4.03a320.679 320.679 0 0 1 -73.9-8.784l37.356-38.241zm-83.538-16.092-23.388-50.632c17.283 6.81 37.017 11.872 58.2 15zm-73.96-54.893h-.37v-29.513c6 7.859 15.093 15.192 26.148 21.783l-25.463 11.976a34 34 0 0 1 -.315-4.246zm4.215 15.636 31.561-14.789 25.209 54.573c-5.513-1.972-10.791-4.118-15.792-6.438-20.235-9.382-34.379-21.037-40.978-33.346zm273.967 31.891 23.559-55.594 18 13.812c-3.021 15.23-17.751 30.112-41.559 41.782zm41.448-56.692-11.156-8.56a74.5 74.5 0 0 0 11.156-11.013zm0-46.788c-2 16.438-18.21 32.594-44.688 44.876-30.611 14.2-71.344 22.017-114.873 22.017s-84.314-7.751-114.925-21.949c-28.72-13.323-45.144-30.991-45.144-48.991h-.37v-68.611c9 11 22.5 20.977 40.492 29.321 32.158 14.917 74.8 23.132 120.034 23.132s87.67-8.215 119.83-23.132c17.566-8.148 31.644-17.851 39.644-28.546zm.7-103.172a41.086 41.086 0 0 1 -.287 4.125h-.413v-.05c-2 16.437-18.21 32.593-44.688 44.874-30.611 14.2-71.344 22.018-114.873 22.018s-84.314-7.82-114.925-22.018c-28.72-13.322-45.168-31.2-45.168-49.057 0-28.688 40.249-55.1 99.083-65.87-16.2 43.826-21.24 68.762-6.443 74.8a8.294 8.294 0 0 0 3.14.608 10.146 10.146 0 0 0 4.154-.942c11.221-5 31.764-38.3 50.423-79.538a359.781 359.781 0 0 1 53.042 2.468c-10.732 12.688-20.3 24.68-28.171 35.366-23.265 31.565-24.506 41.139-18.966 46.359a8.9 8.9 0 0 0 6.292 2.325q.307 0 .632-.017c14.311-.736 54.309-32.786 91.776-72.513 41.027 13.619 65.392 34.838 65.392 57.062zm4.714-158.208c-12.653 16.405-31.654 39.167-61.609 73.8-20.425 23.609-43.241 46.242-64.245 63.729-16.5 13.74-26.739 20.038-32.17 22.607 2.2-4.94 7.7-14.683 21.4-32.785 15.247-20.146 36.174-44.681 58.926-69.086 53.96-57.874 85.635-81.707 97.02-86.973-1.906 4.2-6.831 12.517-19.318 28.708z"/></svg>