<svg id="Layer_1" height="512" viewBox="0 0 512 512" width="512" xmlns="http://www.w3.org/2000/svg" data-name="Layer 1"><path d="m317.3 244.751c-17.561.829-35.72 1.687-40.194-2.787l-.023.023-144.135-139.8.323-.322c-2.482-2.482-4.543-14.616-4.84-23.952a6 6 0 0 0 -2.953-4.984c-.148-.087-6.134-3.618-13.9-8.386l11.41-11.413 2.3 2.3a6 6 0 0 0 8.485-8.485l-13.085-13.085a6 6 0 0 0 -8.485 8.485l2.3 2.3-13.383 13.382c-8.691-5.507-17.45-11.327-22.062-15.172l16.827-16.828 2.3 2.3a6 6 0 1 0 8.485-8.486l-13.084-13.084a6 6 0 0 0 -8.486 8.486l2.3 2.3-17.038 17.037c-7.78-8.066-14.4-16.4-14.488-16.516a6 6 0 0 0 -6.1-2.112c-1.374.328-8.774 2.537-20.031 13.791-11.93 11.929-13.643 19.105-13.872 20.422a6 6 0 0 0 2.193 5.71c.111.087 8.446 6.7 16.517 14.486l-17.039 17.039-2.3-2.3a6 6 0 0 0 -8.486 8.485l13.085 13.085a6 6 0 1 0 8.486-8.485l-2.3-2.3 16.828-16.828c3.843 4.612 9.665 13.371 15.172 22.062l-13.383 13.381-2.3-2.3a6 6 0 0 0 -8.485 8.485l13.084 13.084a6 6 0 0 0 8.485-8.485l-2.3-2.3 11.412-11.413c4.768 7.768 8.3 13.754 8.386 13.9a6.006 6.006 0 0 0 4.982 2.953c9.338.3 21.472 2.358 23.954 4.84l.322-.323 139.8 144.135-.042.042c4.415 4.416 3.564 22.5 2.742 39.981-1.984 42.151-4.983 105.85 41.988 152.821a126.508 126.508 0 0 0 89.855 37.013 130.091 130.091 0 0 0 92.15-38.259c50.522-50.523 51.081-132.17 1.246-182-46.914-46.916-110.523-43.912-152.623-41.923zm-266-174.295c-7.159-8.206-16.966-16.706-22.19-21.056a58.315 58.315 0 0 1 9.118-11.172 57.466 57.466 0 0 1 11.222-9.058c4.364 5.239 12.83 15 21 22.125 9.388 8.187 37.144 24.953 46.136 30.314.375 6.073 1.5 16.416 4.792 23.552l-16.222 16.222c-7.136-3.3-17.479-4.417-23.552-4.792-5.357-8.991-22.122-36.748-30.304-46.135zm77.42 44.342 177.868 172.525-19.265 19.265-172.523-177.872zm190.661 176.702a6 6 0 0 0 1.758-4.289 6.109 6.109 0 0 0 -.079-.878 15.7 15.7 0 0 1 9.462 4.311c7.817 7.816 5.232 23.121-5.763 34.115s-26.3 13.58-34.115 5.763a15.883 15.883 0 0 1 -4.312-9.532 5.6 5.6 0 0 0 .879.01h.046a5.933 5.933 0 0 0 4.243-1.688zm140.813 168.694c-45.843 45.843-119.877 46.4-165.033 1.246-43.221-43.22-40.485-101.34-38.488-143.771.44-9.337.822-17.636.637-24.788l17.69 18.239c-2.259 10.8.3 21.032 7.157 27.888 5.327 5.327 12.547 7.913 20.293 7.912 10.424 0 21.8-4.684 30.794-13.675 15.673-15.674 18.258-38.591 5.763-51.087-6.85-6.849-17.088-9.414-27.887-7.157l-18.169-17.622c7.187.188 15.528-.2 24.913-.642 42.373-2 100.41-4.742 143.575 38.424 45.161 45.156 44.599 119.19-1.245 165.033z"/><path d="m413.309 327.19a6 6 0 0 0 -8.485 0l-77.634 77.634a6 6 0 0 0 0 8.485l13.191 13.191a6 6 0 0 0 8.205.263c5.526-4.859 12.664-10.729 14.56-11.738 1.559-.829 7.169-1.9 11.432-2.382a6 6 0 0 0 3.571-1.72l32.774-32.774a6.006 6.006 0 0 0 1.543-2.651c1.4-5.072 3.919-13.265 5.16-15.6.888-1.67 5.417-7.154 9.1-11.278a6 6 0 0 0 -.23-8.243zm-6.278 27.076c-1.968 3.7-4.592 12.581-5.7 16.51l-30.207 30.206c-3.713.507-10.133 1.6-13.609 3.449-2.782 1.48-8.423 6.1-12.589 9.638l-5-5 69.148-69.148 4.99 4.99a69.786 69.786 0 0 0 -7.033 9.355z"/></svg>