<svg id="Layer_1" height="512" viewBox="0 0 512 512" width="512" xmlns="http://www.w3.org/2000/svg" data-name="Layer 1"><path d="m371.074 20.449c-31.243-10.68-72.514-16.149-116.194-15.379s-84.735 7.661-115.588 19.43c-32.756 12.489-50.621 29.288-50.3 47.548a8.245 8.245 0 0 0 .053.957h-.036c1.112 64 19.274 124.153 51.14 169.855a218.136 218.136 0 0 0 16.741 21.214l-22.316 200.019a6.037 6.037 0 0 0 1.564 4.762c21.959 23.681 65.721 38.138 114.951 38.137 1.464 0 2.937-.009 4.411-.034 53.2-.929 100.6-18.866 120.76-45.7a6 6 0 0 0 1.139-4.474l-26.939-183.708a204.388 204.388 0 0 0 27.3-33.941c30.154-46.5 46.188-107.043 45.182-170.547.048-.745.077-1.491.064-2.239-.315-18.26-18.759-34.561-51.932-45.9zm-227.507 15.259c29.586-11.282 69.192-17.9 111.522-18.64q3.95-.069 7.862-.069c39.378.001 76.149 5.201 104.242 14.801 27.627 9.444 43.6 22.111 43.819 34.754s-15.3 25.86-42.579 36.261c-29.586 11.281-69.192 17.9-111.522 18.639s-82.142-4.493-112.1-14.735c-27.627-9.444-43.6-22.111-43.819-34.754s15.295-25.856 42.575-36.257zm76.686 121.7 30.225 144.536c-18.625-1.409-36.777-7.873-53.753-18.974zm-30.423 97.2-26.681-130.208a343.139 343.139 0 0 0 49.649 7.635zm37.578-121.608q10.679.521 21.674.529c2.667 0 5.351-.024 8.038-.07 8.476-.148 16.85-.53 25.071-1.131l-24.824 143.932zm62.813 23.372 28.842 126.91c-16.9 11.075-35.126 17.463-53.958 18.717zm6.544-25.355a351.389 351.389 0 0 0 52.273-9.43l-23.951 134.051zm-194.458-33.597c8.8 7.9 21.818 14.915 38.619 20.658 2.994 1.023 6.1 1.986 9.275 2.913l30.739 150.009a188.811 188.811 0 0 1 -30.949-34.874c-26.446-37.926-43.03-86.479-47.684-138.706zm152.983 397.544c-45.572.8-87.683-11.826-108.476-32.318l20.91-187.413c26.97 25.409 58.12 39.009 90.5 39.008q1.01 0 2.022-.017c28.423-.5 55.577-11.383 79.52-31.386l25.388 173.133c-18.682 22.584-62.328 38.163-109.864 38.993zm112.41-262.359a184.456 184.456 0 0 1 -33.273 39.006l27.473-153.795q5.583-1.8 10.807-3.784c16.548-6.31 29.29-13.755 37.812-21.932-2.76 52.5-17.649 101.689-42.819 140.505z"/><path d="m225.85 85.7c7.769 2.656 17.8 4.094 28.437 4.094q1.032 0 2.071-.018c11.4-.2 22.179-2.023 30.348-5.138 12.91-4.923 15.523-11.514 15.441-16.177s-2.922-11.16-16-15.628c-8.271-2.827-19.1-4.278-30.508-4.077s-22.179 2.024-30.348 5.139c-12.91 4.922-15.523 11.514-15.441 16.177s2.925 11.156 16 15.628zm30-24.946c21.274-.362 33.031 5.456 34.257 7.917-1.139 2.5-12.69 8.736-33.96 9.107s-33.03-5.455-34.256-7.916c1.14-2.506 12.691-8.739 33.96-9.111z"/></svg>