<?xml version="1.0"?>
<svg xmlns="http://www.w3.org/2000/svg" id="Layer_1" data-name="Layer 1" viewBox="0 0 512 512" width="512" height="512"><path d="M507,164a6,6,0,0,0-6-6H11a6,6,0,0,0-6,6V348a6,6,0,0,0,6,6H501a6,6,0,0,0,6-6Zm-12,6v39H17V170ZM51,221v61H40V221Zm5.8,73a6.236,6.236,0,0,0,6.2-6.076V221H76v66.924A6.392,6.392,0,0,0,82.37,294H87v49H51V294ZM99,282H88V221H99Zm0,12h5.739A6.294,6.294,0,0,0,111,287.924V221h10v66.924A6.159,6.159,0,0,0,127.109,294H132v49H99Zm44-12H133V221h10Zm1,12h5.478c3.314,0,5.522-2.763,5.522-6.076V221h13V343H144Zm36-73h12v66.924c0,3.313,3.165,6.076,6.478,6.076H203v49H180Zm34,61H204V221h10Zm1,12h4.783A6.255,6.255,0,0,0,226,287.924V221h13v66.924A6.372,6.372,0,0,0,245.348,294H250v49H215Zm47-12H251V221h11Zm0,12h5.717A6.313,6.313,0,0,0,274,287.924V221h11v66.924A6.2,6.2,0,0,0,291.152,294H296v49H262Zm44-12h-9V221h9Zm2,12h4.457c3.313,0,5.543-2.763,5.543-6.076V221h13V343H308Zm35-73h12v66.924c0,3.313,3.143,6.076,6.457,6.076H366v49H343Zm35,61H367V221h11Zm0,12h5.826A6.216,6.216,0,0,0,390,287.924V221h12v66.924A6.353,6.353,0,0,0,408.326,294H413v49H378Zm47-12H414V221h11Zm0,12h5.7a6.333,6.333,0,0,0,6.3-6.076V221h11v66.924A6.178,6.178,0,0,0,454.13,294H459v49H425Zm45-12H460V221h10ZM17,221H28v66.924c0,3.313,3.121,6.076,6.435,6.076H39v49H17ZM471,343V294h5.5c3.313,0,5.5-2.763,5.5-6.076V221h13V343Z"/></svg>
