<svg height="480pt" viewBox="0 0 480 480" width="480pt" xmlns="http://www.w3.org/2000/svg"><path d="m240 0c-132.546875 0-240 107.453125-240 240s107.453125 240 240 240 240-107.453125 240-240c-.148438-132.484375-107.515625-239.851562-240-240zm0 464c-123.710938 0-224-100.289062-224-224s100.289062-224 224-224 224 100.289062 224 224c-.140625 123.652344-100.347656 223.859375-224 224zm0 0"/><path d="m240 280c22.082031-.027344 39.972656-17.917969 40-40v-120c0-22.089844-17.910156-40-40-40s-40 17.910156-40 40v120c.027344 22.082031 17.917969 39.972656 40 40zm-24-160c0-13.253906 10.746094-24 24-24s24 10.746094 24 24v120c0 13.253906-10.746094 24-24 24s-24-10.746094-24-24zm0 0"/><path d="m240 312c-39.746094-.042969-71.957031-32.253906-72-72h-16c.058594 45.46875 34.722656 83.421875 80 87.59375v72.40625h-40v16h96v-16h-40v-72.40625c45.277344-4.171875 79.941406-42.125 80-87.59375h-16c-.042969 39.746094-32.253906 71.957031-72 72zm0 0"/></svg>