<?xml version="1.0" standalone="no"?>
<!DOCTYPE svg PUBLIC "-//W3C//DTD SVG 20010904//EN"
 "http://www.w3.org/TR/2001/REC-SVG-20010904/DTD/svg10.dtd">
<svg version="1.0" xmlns="http://www.w3.org/2000/svg"
 width="512.000000pt" height="512.000000pt" viewBox="0 0 512.000000 512.000000"
 preserveAspectRatio="xMidYMid meet">
<metadata>
Created by potrace 1.11, written by Peter Selinger 2001-2013
</metadata>
<g transform="translate(0.000000,512.000000) scale(0.100000,-0.100000)"
fill="#000000" stroke="none">
<path d="M2309 4956 c-2 -2 -36 -7 -75 -10 -39 -4 -80 -8 -90 -10 -11 -2 -39
-7 -64 -11 -72 -11 -208 -45 -295 -72 -738 -233 -1319 -828 -1534 -1573 -32
-112 -59 -229 -65 -289 -2 -20 -8 -65 -12 -101 -11 -82 -11 -437 0 -510 4 -30
10 -70 12 -89 9 -71 45 -230 75 -326 203 -657 682 -1191 1310 -1458 140 -60
352 -125 464 -143 21 -3 47 -8 59 -10 11 -3 39 -7 61 -10 22 -3 51 -8 65 -11
45 -9 423 -11 485 -2 33 4 85 11 115 14 76 8 206 38 325 73 734 220 1321 800
1549 1534 20 62 38 124 40 138 3 14 12 59 20 100 23 116 25 130 33 200 10 85
10 406 0 493 -7 68 -33 229 -42 257 -2 8 -6 27 -9 41 -2 14 -18 72 -36 130
-139 452 -403 842 -774 1142 -72 58 -258 182 -341 227 -225 121 -543 227 -765
255 -25 3 -61 8 -80 11 -40 7 -425 15 -431 10z m466 -175 c39 -6 102 -18 140
-27 39 -8 79 -16 90 -19 48 -9 192 -57 277 -91 349 -139 682 -391 909 -689
224 -293 375 -652 429 -1020 18 -117 20 -421 5 -545 -23 -178 -78 -402 -130
-525 -91 -215 -181 -377 -289 -520 -282 -374 -673 -644 -1130 -781 -302 -91
-705 -107 -1021 -40 -39 8 -82 17 -95 19 -56 11 -255 81 -352 123 -626 278
-1084 834 -1233 1501 -70 309 -69 657 1 963 47 209 136 422 257 625 177 295
425 544 723 727 191 118 456 224 668 268 188 40 272 47 491 44 105 -1 222 -7
260 -13z"/>
<path d="M2338 4475 c-2 -1 -33 -5 -69 -9 -130 -12 -306 -55 -444 -108 -557
-216 -959 -660 -1119 -1236 -14 -48 -27 -105 -31 -127 -3 -22 -8 -53 -11 -70
-17 -97 -22 -178 -19 -325 2 -91 6 -175 9 -186 2 -12 7 -39 10 -60 19 -118 32
-172 73 -294 83 -250 203 -456 387 -663 78 -87 137 -105 172 -53 35 55 32 62
-96 213 -212 248 -339 536 -384 865 -18 136 -14 365 9 503 17 102 62 254 106
362 211 507 655 874 1205 997 141 31 378 41 566 23 85 -9 88 -8 113 17 31 31
33 74 5 104 -22 24 -33 27 -129 40 -57 8 -345 14 -353 7z"/>
<path d="M3057 4360 c-23 -15 -44 -60 -39 -86 4 -27 37 -57 82 -74 19 -7 64
-26 99 -42 95 -43 151 -21 151 57 0 41 -25 63 -129 109 -94 42 -137 52 -164
36z"/>
<path d="M3516 4089 c-13 -10 -26 -30 -28 -43 -5 -27 16 -86 30 -86 13 0 221
-205 269 -265 95 -118 183 -268 242 -410 34 -80 77 -216 87 -269 3 -16 6 -32
8 -35 4 -6 12 -58 26 -166 8 -68 6 -329 -4 -390 -44 -264 -108 -450 -224 -645
-54 -90 -147 -215 -209 -279 -63 -65 -75 -92 -62 -130 11 -31 51 -59 77 -55 6
1 17 2 23 3 13 1 115 105 152 154 12 16 31 41 43 55 120 151 246 404 305 613
76 271 86 630 24 901 -76 334 -249 651 -489 892 -165 166 -218 196 -270 155z"/>
<path d="M2265 3815 l-25 -28 0 -542 0 -542 -42 8 c-24 4 -90 7 -148 5 -269
-8 -499 -163 -582 -393 -26 -71 -33 -221 -13 -285 61 -199 199 -334 412 -404
80 -26 100 -29 218 -28 112 1 141 4 210 27 188 62 334 195 397 362 22 59 23
70 26 555 2 272 5 496 7 498 3 3 145 -18 225 -34 27 -5 29 -6 145 -24 44 -7
89 -14 100 -16 90 -18 110 -16 138 10 l28 26 -3 316 c-3 369 5 344 -125 363
-74 11 -93 14 -153 25 -94 16 -150 26 -185 31 -22 3 -62 9 -90 15 -46 8 -72
13 -160 26 -16 3 -52 9 -80 14 -27 6 -68 12 -90 16 -22 3 -51 7 -65 10 -104
18 -118 17 -145 -11z m315 -180 c20 -2 142 -22 271 -44 128 -22 252 -42 274
-46 22 -4 47 -8 55 -9 13 -2 15 -35 18 -205 1 -111 -1 -200 -6 -198 -4 3 -26
8 -48 11 -22 4 -49 8 -59 10 -11 2 -78 13 -150 25 -71 12 -139 23 -150 25
-135 26 -174 24 -202 -9 l-23 -26 -1 -512 c0 -282 -2 -529 -4 -550 -14 -131
-140 -264 -303 -319 -74 -26 -231 -32 -303 -13 -141 37 -260 129 -315 240 -25
52 -29 71 -29 145 1 70 6 95 28 143 52 115 197 220 337 246 76 14 216 7 270
-14 78 -29 120 -25 143 14 15 27 17 77 17 574 l0 544 72 -14 c39 -7 88 -15
108 -18z"/>
<path d="M1654 1312 c-30 -25 -114 -177 -114 -207 0 -29 43 -75 71 -75 43 0
70 25 120 112 44 76 50 94 45 124 -11 55 -79 82 -122 46z"/>
<path d="M3220 1317 c-16 -8 -28 -26 -34 -49 -8 -32 -5 -44 39 -119 53 -93 77
-118 116 -119 35 0 79 42 79 75 0 27 -74 164 -110 203 -23 25 -53 28 -90 9z"/>
<path d="M2023 1151 c-11 -11 -29 -53 -41 -98 -35 -128 -35 -132 -2 -164 50
-51 111 -33 134 40 48 149 50 208 6 231 -30 16 -75 12 -97 -9z"/>
<path d="M2842 1163 c-18 -7 -42 -57 -38 -79 14 -73 52 -187 68 -204 40 -43
122 -12 131 49 5 35 -49 211 -70 227 -18 13 -66 17 -91 7z"/>
<path d="M2427 1096 l-29 -27 4 -114 c3 -128 10 -142 71 -152 30 -5 40 -1 61
22 25 26 26 34 26 135 0 123 -11 147 -70 156 -29 5 -40 1 -63 -20z"/>
</g>
</svg>
